{
 "cells": [
  {
   "cell_type": "code",
   "execution_count": 57,
   "id": "81d79570",
   "metadata": {},
   "outputs": [],
   "source": [
    "from glob import glob\n",
    "import os"
   ]
  },
  {
   "cell_type": "code",
   "execution_count": 58,
   "id": "99bcefdc",
   "metadata": {},
   "outputs": [],
   "source": [
    "experiment_no = 498\n",
    "file_idx = 5\n",
    "area = 'gily_center' # options are {\"nest\",\"center\",\"gily_center\",\"burrow\"} - area of arena to check\n",
    "\n",
    "path = f\"/mnt/home/neurostatslab/ceph/saneslab_data/big_setup/experiment_{experiment_no}/concatenated_data_cam_mic_sync/\"\n",
    "sync_output = f\"/mnt/home/neurostatslab/ceph/saneslab_data/big_setup/experiment_{experiment_no}/sync_test/\"\n",
    "os.makedirs(sync_output, exist_ok=True)\n",
    "\n",
    "channel_dict = {\"nest\":[0],\"burrow\":[1],\"center\":[2],\"gily_center\":[4]}\n",
    "vid_dict = {'center':'center',\"nest\":\"nest_top\",\"burrow\":\"burrow_side\",\"gily_center\":\"gily_center\"}\n",
    "\n",
    "try:\n",
    "    channels = channel_dict[area]\n",
    "except:\n",
    "    raise Exception(\"invalid area input\")\n",
    "\n",
    "audio = None\n",
    "for ch in channels: \n",
    "    str_1 = \"%02d\"%(ch)\n",
    "    str_2 = \"%03d\"%(file_idx)\n",
    "    # getting the files\n",
    "    audio_file = glob(path+f\"channel_{str_1}_file_{str_2}.wav\")[0]\n",
    "\n",
    "str_1 = vid_dict[area]\n",
    "str_2 = \"%03d\"%(file_idx)\n",
    "# getting the video file\n",
    "video_file = glob(path+f\"video_{str_1}_{str_2}.mp4\")[0]"
   ]
  },
  {
   "cell_type": "markdown",
   "id": "f0d67b28",
   "metadata": {},
   "source": [
    "### For FFMPEG, use the miniforge env ffmpeg-env"
   ]
  },
  {
   "cell_type": "code",
   "execution_count": 59,
   "id": "84c8e92a",
   "metadata": {},
   "outputs": [
    {
     "name": "stderr",
     "output_type": "stream",
     "text": [
      "ffmpeg version 5.1.2 Copyright (c) 2000-2022 the FFmpeg developers\n",
      "  built with gcc 12.3.0 (conda-forge gcc 12.3.0-2)\n",
      "  configuration: --prefix=/mnt/home/njoseph/miniforge3/envs/common --cc=/home/conda/feedstock_root/build_artifacts/ffmpeg_1696213708285/_build_env/bin/x86_64-conda-linux-gnu-cc --cxx=/home/conda/feedstock_root/build_artifacts/ffmpeg_1696213708285/_build_env/bin/x86_64-conda-linux-gnu-c++ --nm=/home/conda/feedstock_root/build_artifacts/ffmpeg_1696213708285/_build_env/bin/x86_64-conda-linux-gnu-nm --ar=/home/conda/feedstock_root/build_artifacts/ffmpeg_1696213708285/_build_env/bin/x86_64-conda-linux-gnu-ar --disable-doc --disable-openssl --enable-demuxer=dash --enable-hardcoded-tables --enable-libfreetype --enable-libfontconfig --enable-libopenh264 --enable-libdav1d --enable-gnutls --enable-libmp3lame --enable-libvpx --enable-libass --enable-pthreads --enable-vaapi --enable-gpl --enable-libx264 --enable-libx265 --enable-libaom --enable-libsvtav1 --enable-libxml2 --enable-pic --enable-shared --disable-static --enable-version3 --enable-zlib --enable-libopus --pkg-config=/home/conda/feedstock_root/build_artifacts/ffmpeg_1696213708285/_build_env/bin/pkg-config\n",
      "  libavutil      57. 28.100 / 57. 28.100\n",
      "  libavcodec     59. 37.100 / 59. 37.100\n",
      "  libavformat    59. 27.100 / 59. 27.100\n",
      "  libavdevice    59.  7.100 / 59.  7.100\n",
      "  libavfilter     8. 44.100 /  8. 44.100\n",
      "  libswscale      6.  7.100 /  6.  7.100\n",
      "  libswresample   4.  7.100 /  4.  7.100\n",
      "  libpostproc    56.  6.100 / 56.  6.100\n",
      "Input #0, mov,mp4,m4a,3gp,3g2,mj2, from '/mnt/home/neurostatslab/ceph/saneslab_data/big_setup/experiment_498/concatenated_data_cam_mic_sync/video_gily_center_005.mp4':\n",
      "  Metadata:\n",
      "    major_brand     : isom\n",
      "    minor_version   : 512\n",
      "    compatible_brands: isomiso2avc1mp41\n",
      "    encoder         : Lavf62.3.100\n",
      "  Duration: 00:06:00.00, start: 0.000000, bitrate: 4707 kb/s\n",
      "  Stream #0:0[0x1](und): Video: h264 (High) (avc1 / 0x31637661), yuv420p(progressive), 1600x1200, 4704 kb/s, 30 fps, 30 tbr, 1000k tbn (default)\n",
      "    Metadata:\n",
      "      handler_name    : VideoHandler\n",
      "      vendor_id       : [0][0][0][0]\n",
      "      encoder         : Lavc62.11.100 libx264\n",
      "Input #1, wav, from '/mnt/home/neurostatslab/ceph/saneslab_data/big_setup/experiment_498/concatenated_data_cam_mic_sync/channel_04_file_005.wav':\n",
      "  Metadata:\n",
      "    encoder         : Lavf62.3.100\n",
      "  Duration: 00:06:00.00, bitrate: 4000 kb/s\n",
      "  Stream #1:0: Audio: pcm_f32le ([3][0][0][0] / 0x0003), 125000 Hz, mono, flt, 4000 kb/s\n",
      "Stream mapping:\n",
      "  Stream #0:0 -> #0:0 (copy)\n",
      "  Stream #1:0 -> #0:1 (pcm_f32le (native) -> aac (native))\n",
      "Press [q] to stop, [?] for help\n",
      "Output #0, mp4, to '/mnt/home/neurostatslab/ceph/saneslab_data/big_setup/experiment_498/sync_test/av_gily_center_file_005.mp4':\n",
      "  Metadata:\n",
      "    major_brand     : isom\n",
      "    minor_version   : 512\n",
      "    compatible_brands: isomiso2avc1mp41\n",
      "    encoder         : Lavf59.27.100\n",
      "  Stream #0:0(und): Video: h264 (High) (avc1 / 0x31637661), yuv420p(progressive), 1600x1200, q=2-31, 4704 kb/s, 30 fps, 30 tbr, 1000k tbn (default)\n",
      "    Metadata:\n",
      "      handler_name    : VideoHandler\n",
      "      vendor_id       : [0][0][0][0]\n",
      "      encoder         : Lavc62.11.100 libx264\n",
      "  Stream #0:1: Audio: aac (LC) (mp4a / 0x6134706D), 96000 Hz, mono, fltp, 69 kb/s\n",
      "    Metadata:\n",
      "      encoder         : Lavc59.37.100 aac\n",
      "frame=10800 fps=1967 q=-1.0 Lsize=  210175kB time=00:06:00.00 bitrate=4782.7kbits/s speed=65.6x    \n",
      "video:206721kB audio:3079kB subtitle:0kB other streams:0kB global headers:0kB muxing overhead: 0.179032%\n",
      "[aac @ 0x555555644180] Qavg: 224.524\n"
     ]
    },
    {
     "data": {
      "text/plain": [
       "CompletedProcess(args=['ffmpeg', '-i', '/mnt/home/neurostatslab/ceph/saneslab_data/big_setup/experiment_498/concatenated_data_cam_mic_sync/video_gily_center_005.mp4', '-i', '/mnt/home/neurostatslab/ceph/saneslab_data/big_setup/experiment_498/concatenated_data_cam_mic_sync/channel_04_file_005.wav', '-c:v', 'copy', '-c:a', 'aac', '/mnt/home/neurostatslab/ceph/saneslab_data/big_setup/experiment_498/sync_test/av_gily_center_file_005.mp4'], returncode=0)"
      ]
     },
     "execution_count": 59,
     "metadata": {},
     "output_type": "execute_result"
    }
   ],
   "source": [
    "import subprocess\n",
    "output_path = f\"{sync_output}av_{area}_file_{str_2}.mp4\"\n",
    "\n",
    "subprocess.run([\n",
    "    \"ffmpeg\",\n",
    "    \"-i\", video_file,\n",
    "    \"-i\", audio_file,\n",
    "    \"-c:v\", \"copy\",\n",
    "    \"-c:a\", \"aac\",\n",
    "    output_path\n",
    "])"
   ]
  },
  {
   "cell_type": "markdown",
   "id": "034cc4ce",
   "metadata": {},
   "source": [
    "### For Moviepy, use the miniforge env analysis"
   ]
  },
  {
   "cell_type": "code",
   "execution_count": 13,
   "id": "7e834e0c",
   "metadata": {},
   "outputs": [],
   "source": [
    "# from moviepy import VideoFileClip, AudioFileClip"
   ]
  },
  {
   "cell_type": "code",
   "execution_count": 14,
   "id": "446231ac",
   "metadata": {},
   "outputs": [],
   "source": [
    "\n",
    "# audio = AudioFileClip(audio_file)\n",
    "# video = VideoFileClip(video_file)\n",
    "\n",
    "# final = video.with_audio(audio)  # note: set_audio() is now with_audio() in v2\n",
    "\n",
    "# final.write_videofile(sync_output+f\"av_{area}_file_{str_2}.mp4\",codec=\"libx264\",audio_codec=\"aac\",preset=\"ultrafast\")"
   ]
  },
  {
   "cell_type": "code",
   "execution_count": null,
   "id": "9029d028",
   "metadata": {},
   "outputs": [],
   "source": []
  }
 ],
 "metadata": {
  "kernelspec": {
   "display_name": "common_kernel",
   "language": "python",
   "name": "common_kernel"
  },
  "language_info": {
   "codemirror_mode": {
    "name": "ipython",
    "version": 3
   },
   "file_extension": ".py",
   "mimetype": "text/x-python",
   "name": "python",
   "nbconvert_exporter": "python",
   "pygments_lexer": "ipython3",
   "version": "3.11.6"
  }
 },
 "nbformat": 4,
 "nbformat_minor": 5
}
